<?xml version="1.0" encoding="UTF-8" standalone="no"?>
<!DOCTYPE svg PUBLIC "-//W3C//DTD SVG 1.1//EN" "http://www.w3.org/Graphics/SVG/1.1/DTD/svg11.dtd">
<svg width="100%" height="100%" viewBox="0 0 1500 1500" version="1.1" xmlns="http://www.w3.org/2000/svg" xmlns:xlink="http://www.w3.org/1999/xlink" xml:space="preserve" style="fill-rule:evenodd;clip-rule:evenodd;stroke-linejoin:round;stroke-miterlimit:1.41421;">
    <g id="Bee" transform="matrix(1.48277,0,0,1.48277,-336.989,-546.232)">
        <g id="Center">
            <path d="M777,696C765.593,702.069 705.087,701.411 697,698C688.913,694.589 676.174,687.16 670,678C663.826,668.84 660.107,655.876 660,640C659.893,624.124 661.971,612.583 667,605C672.029,597.417 671.436,591.443 678,582C684.63,572.462 696.419,564.987 708,566C719.581,567.013 720.859,564.129 736.218,565C751.578,565.871 759.601,558.641 769.165,566C778.729,573.359 782.808,572.063 789,581C795.192,589.937 796.609,588.642 799,601C801.391,613.358 802.604,626.802 803,641C803.396,655.198 804.274,670.504 799,680C793.726,689.496 788.407,689.931 777,696Z"/>
            <path d="M652,721C652,721 663.423,726.15 669,729C676.5,732.833 687.667,741.333 697,744C705.98,746.566 715.662,744.839 725,745C734.667,745.167 745.101,746.414 755,745C765.5,743.5 778.5,739.5 788,736C796.393,732.908 806,725.167 812,724C816.254,723.173 822.989,724.786 824,729C826,737.333 824.667,761.167 824,774C823.442,784.735 823,796.5 820,806C817.124,815.108 811.655,823.303 806,831C800,839.167 791.5,848.167 784,855C776.953,861.421 769,868.5 761,872C753.268,875.383 743.833,875.667 736,876C728.643,876.313 721.144,875.786 714,874C706.667,872.167 698.333,869.333 692,865C685.667,860.667 681.102,853.875 676,848C670.5,841.667 664.25,834.318 659,827C653.5,819.333 646.333,809.667 643,802C640.159,795.465 639.612,788.1 639,781C638.167,771.333 637.5,753.167 638,744C638.335,737.863 639.667,729.833 642,726C643.938,722.817 652,721 652,721Z"/>
            <path d="M656,890C659.833,889.333 666,891.333 668,895C670,898.667 667.899,906.334 668,912C668.167,921.333 668.5,938.167 669,951C669.494,963.675 670.5,977.5 671,989C671.449,999.329 670.737,1009.74 672,1020C673.333,1030.83 677,1043 679,1054C680.931,1064.62 681.833,1077 684,1086C685.826,1093.59 689.167,1101 692,1108C694.743,1114.78 698.333,1122.5 701,1128C703.147,1132.43 704.333,1137.83 708,1141C711.667,1144.17 717.649,1146.39 723,1147C730.333,1147.83 744.167,1148.83 752,1146C759.549,1143.27 767.315,1137.57 770,1130C775.5,1114.5 781.5,1076.67 785,1053C788.183,1031.47 789.703,1009.72 791,988C792.333,965.667 792.833,933 793,919C793.06,913.989 790,908.333 792,904C794,899.667 800.5,895 805,893C809.275,891.1 815.667,890.167 819,892C822.333,893.833 824.814,899.532 825,904C825.5,916 822.672,943.986 822,964C821.167,988.833 821.833,1029.67 820,1053C818.648,1070.21 814.82,1087.16 811,1104C806.5,1123.83 798.833,1155 793,1172C788.887,1183.99 782.322,1195.02 776,1206C769.667,1217 761.667,1230.17 755,1238C749.77,1244.14 743.833,1253.33 736,1253C728.167,1252.67 715.497,1243.94 708,1236C699.5,1227 691.56,1211.96 685,1199C678.333,1185.83 673,1170.5 668,1157C663.241,1144.15 658.051,1131.36 655,1118C650.167,1096.83 641.983,1059.66 639,1030C636,1000.17 636.5,957.833 637,939C637.2,931.482 640.667,923.667 642,917C643.193,911.035 642.667,903.5 645,899C647.181,894.794 652.167,890.667 656,890Z"/>
            <path d="M684,939C690.5,942.667 696.628,948.118 704,950C711.833,952 722,950.833 731,951C739.998,951.167 749.241,953.07 758,951C767.167,948.833 779.167,942.167 786,938C791.035,934.93 797.5,931.5 799,926C800.5,920.5 797.833,908.833 795,905C792.394,901.474 786.309,902.192 782,903C776.667,904 769.519,908.827 763,911C756,913.333 747.888,916.249 740,917C729.5,918 710,918.667 700,917C692.648,915.775 685.5,910 680,907C675.533,904.564 669.5,895.5 667,899C664.5,902.5 662.167,921.333 665,928C667.833,934.667 677.626,935.404 684,939Z"/>
            <path d="M673,978C678.667,979 688.5,991.5 697,995C705.413,998.464 714.912,999.426 724,999C734.667,998.5 750.833,994.667 761,992C769.264,989.832 779,984.667 785,983C788.867,981.926 795.667,978.333 797,982C798.333,985.667 795.333,999.333 793,1005C791.113,1009.58 787.432,1013.78 783,1016C777.667,1018.67 768.462,1020.07 761,1021C750.333,1022.33 730.833,1024.33 719,1024C709.195,1023.72 698.667,1021.17 690,1019C682.125,1017.03 671.5,1016 667,1011C662.5,1006 662,994.5 663,989C663.886,984.125 668.12,977.139 673,978Z"/>
            <path d="M678,1056C681.333,1052.67 686.331,1061.98 691,1064C696,1066.17 702.208,1067.84 708,1069C714.667,1070.33 723.275,1071.68 731,1072C739.167,1072.33 749.5,1073.17 757,1071C764.196,1068.92 769.833,1062.33 776,1059C781.776,1055.88 792.333,1047.83 794,1051C795.667,1054.17 789.167,1072 786,1078C783.789,1082.19 779.024,1084.5 775,1087C768.833,1090.83 758,1098.5 749,1101C740.001,1103.5 730.28,1103.05 721,1102C710.667,1100.83 695.333,1097 687,1094C681.082,1091.87 672.449,1090.12 671,1084C669.5,1077.67 674.667,1059.33 678,1056Z"/>
        </g>
        <g id="Right" transform="matrix(-1,0,0,1,1466.16,0)">
            <path d="M600,894C600,894 573.991,894.421 559,896C544.009,897.579 518.198,894.502 508,902C497.802,909.498 486.823,922.597 493,929C499.177,935.403 516.072,938.178 533,933C549.928,927.822 577.406,917.447 583,913C588.594,908.553 600,894 600,894Z"/>
            <path d="M641,894C641,894 607.657,916.182 595,935.702C582.343,955.222 572.099,962.519 572.44,979C572.781,995.481 581.753,1023.48 572.44,1039C563.127,1054.52 535.761,1085.72 525.223,1098C514.685,1110.28 500.097,1137.96 497,1149C493.903,1160.04 485.061,1173.43 491.209,1181C497.357,1188.57 516.287,1190.51 525.223,1174C534.159,1157.5 548.653,1129.2 561,1114C573.347,1098.8 577.386,1092.51 585,1082C592.614,1071.49 597.27,1056.32 600,1040C602.73,1023.68 606.958,1008.52 607,996C607.042,983.482 619.173,961.808 626,952C632.827,942.192 643,935.702 643,935.702L649,893"/>
            <path d="M608,695C608,695 596.589,713.917 598,750C599.411,786.083 596.617,794.437 606,818C615.383,841.563 619,845 619,845C619,845 557.905,854.789 531,856C503.295,857.247 471.521,860.196 432,843C392.479,825.804 345.908,801.592 322,775C298.092,748.408 266.147,725.634 256.718,679C247.29,632.366 245.251,623.101 274,618C302.749,612.899 337.57,606.399 373,613C408.43,619.601 500.387,645.855 522,654C543.613,662.145 608,695 608,695Z"/>
            <path d="M619,654C619,654 613.966,654.838 609.455,651.556C598.667,643.706 581.428,626.447 575,620C565.884,610.857 536.194,589.231 532,583C527.806,576.769 518.131,555.63 534,556C549.869,556.37 558.366,557.688 566,564C573.634,570.312 592.447,584.171 599,589C605.553,593.829 617.417,599.892 619,604C620.583,608.108 618.775,612.951 619,625C619.225,637.049 619,654 619,654Z"/>
            <path d="M697,566C697,566 683.39,546 670,532C656.61,518 658.767,511.297 643,502C627.233,492.703 600.273,493.68 600,502C599.727,510.32 583.245,519.642 600,525C608.443,527.7 617.305,534.948 625.023,540.802C632.621,546.565 639.111,550.914 643,555.995C653.285,569.433 669,587 669,587L681,591L697,566Z"/>
        </g>
        <g id="Left">
            <path d="M600,894C600,894 573.991,894.421 559,896C544.009,897.579 518.198,894.502 508,902C497.802,909.498 486.823,922.597 493,929C499.177,935.403 516.072,938.178 533,933C549.928,927.822 577.406,917.447 583,913C588.594,908.553 600,894 600,894Z"/>
            <path d="M641,894C641,894 607.657,916.182 595,935.702C582.343,955.222 572.099,962.519 572.44,979C572.781,995.481 581.753,1023.48 572.44,1039C563.127,1054.52 535.761,1085.72 525.223,1098C514.685,1110.28 500.097,1137.96 497,1149C493.903,1160.04 485.061,1173.43 491.209,1181C497.357,1188.57 516.287,1190.51 525.223,1174C534.159,1157.5 548.653,1129.2 561,1114C573.347,1098.8 577.386,1092.51 585,1082C592.614,1071.49 597.27,1056.32 600,1040C602.73,1023.68 606.958,1008.52 607,996C607.042,983.482 619.173,961.808 626,952C632.827,942.192 643,935.702 643,935.702L652,893"/>
            <path d="M608,695C608,695 596.589,713.917 598,750C599.411,786.083 596.617,794.437 606,818C615.383,841.563 619,845 619,845C619,845 557.905,854.789 531,856C503.295,857.247 471.521,860.196 432,843C392.479,825.804 345.908,801.592 322,775C298.092,748.408 266.147,725.634 256.718,679C247.29,632.366 245.251,623.101 274,618C302.749,612.899 337.57,606.399 373,613C408.43,619.601 500.387,645.855 522,654C543.613,662.145 608,695 608,695Z"/>
            <path d="M619,654C619,654 613.966,654.838 609.455,651.556C598.667,643.706 581.428,626.447 575,620C565.884,610.857 536.194,589.231 532,583C527.806,576.769 518.131,555.63 534,556C549.869,556.37 558.366,557.688 566,564C573.634,570.312 592.447,584.171 599,589C605.553,593.829 617.417,599.892 619,604C620.583,608.108 618.775,612.951 619,625C619.225,637.049 619,654 619,654Z"/>
            <path d="M697,566C697,566 683.39,546 670,532C656.61,518 658.767,511.297 643,502C627.233,492.703 600.273,493.68 600,502C599.727,510.32 583.245,519.642 600,525C608.443,527.7 617.305,534.948 625.023,540.802C632.621,546.565 639.111,550.914 643,555.995C653.285,569.433 669,587 669,587L681,591L697,566Z"/>
        </g>
    </g>
</svg>
